# xmcd
#
# Track frame offsets: 
#        150
#        17813
#        40805
#        51431
#        73190
#        93887
#        119058
#        139289
#        157952
#        164320
#        182227
#
# Disc length: 2654 seconds
#
# Revision: 1
# Processed by: cddbd v1.5.2PL0 Copyright (c) Steve Scherf et al.
# Submitted via: ExactAudioCopy v0.95b4
#
DISCID=9c0a5c0b
DTITLE=Live Maria Rogen and Lars Andreas Haug - [tu'ba]
DYEAR=1998
DGENRE=Jazz
TTITLE0=Steps
TTITLE1=Elephant Climbing
TTITLE2=En Aalls Stemning
TTITLE3=Quietude
TTITLE4=Woodstock
TTITLE5=Snirkelsirkler
TTITLE6=Sleeping Clowns
TTITLE7=Of Wishes And Desires
TTITLE8=Alone Now
TTITLE9=Klorerte Trikkebilletter
TTITLE10=Someone To Watch Over Me
EXTD=YEAR: 1998
EXTT0=
EXTT1=
EXTT2=
EXTT3=
EXTT4=
EXTT5=
EXTT6=
EXTT7=
EXTT8=
EXTT9=
EXTT10=
PLAYORDER=
